<svg xmlns="http://www.w3.org/2000/svg" viewBox="0 0 512 512" width="512" height="512"><g fill="#000"><path d="M12.3 95.5v321c0 20.4 16.5 37 37 37h413.6c20.2 0 36.7-16.5 36.7-37v-321c0-20.3-16.5-37-36.8-37H49c-20.3 0-37 16.6-37 37zM462.8 429H49.2c-6.8 0-12.4-5.6-12.4-12.5V175.7H475v241c.2 6.6-5.4 12.2-12.2 12.2zm12.4-333.5v55.7H36.8V95.5c0-6.8 5.5-12.4 12.4-12.4H463c6.6 0 12.2 5.7 12.2 12.5z"/><path d="M71 129.4c3 0 6.3-1.3 8.6-3.6s3.6-5.4 3.6-8.7c0-3-1.3-6.3-3.6-8.6-4.6-4.6-12.8-4.6-17.3 0-2.3 2.3-3.6 5.4-3.6 8.7 0 3.3 1.3 6.5 3.6 8.8 2.2 2.3 5.3 3.6 8.6 3.6zM117.2 129.4c3.2 0 6.4-1.3 8.6-3.6 2.3-2.3 3.6-5.4 3.6-8.7 0-3-1.3-6.3-3.6-8.6-4.6-4.6-12.7-4.6-17.3 0-2.3 2.3-3.6 5.4-3.6 8.7 0 3.3 1.2 6.5 3.5 8.8 2.2 2.3 5.4 3.6 8.7 3.6zM163.4 129.4c3.2 0 6.4-1.3 8.7-3.6 2.4-2.3 3.7-5.4 3.7-8.7 0-3-1.3-6.3-3.6-8.6-4.5-4.6-12.7-4.6-17.2 0-2.3 2.3-3.6 5.4-3.6 8.7 0 3.3 1.3 6.5 3.6 8.8 2.2 2.3 5.4 3.6 8.6 3.6zM337.6 232.3c-5.2-4.4-13-3.7-17.3 1.4-4.4 5.2-3.7 13 1.4 17.3l61.8 52.3-61.8 52.5c-5.2 4.4-5.8 12-1.4 17.3 2.4 3 6 4.4 9.3 4.4 2.8 0 5.6-1 8-3l72.8-61.7c2.7-2.3 4.3-5.7 4.3-9.4 0-3.6-1.6-7-4.3-9.3l-72.8-61.7zM128.4 303.3L190 251c5.3-4.4 6-12 1.5-17.3-4.4-5.2-12-5.8-17.3-1.4L101.4 294c-2.7 2.2-4.3 5.6-4.3 9.2 0 3.6 1.7 7 4.4 9.3l72.8 61.8c2.3 2 5 3 8 3 3.4 0 6.8-1.6 9.2-4.4 4.4-5.3 3.8-13-1.4-17.4l-61.6-52.3zM291 215c-6.2-2.6-13.3.4-15.8 6.7L213.5 376c-2.5 6.3.5 13.4 6.8 16 1.5.5 3 .8 4.5.8 5 0 9.5-3 11.4-7.7L298 231c2.5-6.3-.6-13.4-7-16z"/></g></svg>