<svg xmlns="http://www.w3.org/2000/svg" width="512" height="512" viewBox="0 0 578.305 578.305"><g fill="#333"><path d="M533.3 160.4c.6-26.5-5.3-53.4-10-79.8-1.6-9-5-17.8-8.2-26.4-2.3-6.5-9.6-10.7-16.2-9.2-4.3 1-8.2 1.8-12 3C447.5 61 411 80 376 102c-4.6 2.8-11.4 4-17 3.5-13.7-1-27-4.4-40.7-5-33.5-1.6-67-.6-100.3 5.2-4.7.8-10.7 0-14.6-2.5-38-24.7-77.8-45.8-122.5-57.7-6.8-1.7-13.7-.8-15.4 2-1 1.5-2 3.2-2.4 5-5 17-10.6 33.8-13.4 51-3.3 20.8-6.5 42-5 62.7 1 13-2.5 21-9.6 30C11.4 226.8.7 262 0 300.4c-.5 33 3.8 65 14 96.4 15.2 48.2 45 84.4 89.5 108 36.7 19.3 76.7 26.8 117.7 28.2 37 1.3 73.8.2 110.7.4 37 .2 73.5-3 109-14.6 35.3-11.6 66-30.2 89.8-59.5 34.4-42.3 45-92.2 47.3-145C580 274 571.7 236 548 203c-9.7-13.4-15-25-14.7-42.6zM462 469.6c-15.8 13.8-35.2 20.3-55 25-39 9.3-78.8 11.7-118.6 10-39.4 1.6-78.3-.8-116.6-9.8-28.3-6.7-54-18-72-42C71 414 63.7 340.5 111 300.4c12.2-10.2 25.6-16.7 41.5-17.7 17.5-1 35-3.3 52.6-3 44.3.4 88.5 2.6 132.7 3 20 0 40.5-4.6 60.5-3.4 18.2 1 37.3 4.5 54 11.8 27.4 12.2 42.2 37 46.7 66 6.6 43-2.2 82.4-37 112.4z"/><ellipse cx="390" cy="385.6" rx="42.1" ry="56.3"/><ellipse cx="189" cy="385.6" rx="42.1" ry="56.3"/></g></svg>