<svg xmlns="http://www.w3.org/2000/svg" viewBox="0 0 512 512"><g fill="#F2F2F2"><path d="M485 122.8L452.3 451H59.7L33.4 129.2 256 253.8"/><path d="M474 61L256 265.7 38 61h218"/></g><path d="M59.7 155.5V451H24C11 451 0 440.2 0 427V112l39 1 20.7 42.5z" fill="#F14336"/><path d="M512 112v315c0 13.2-10.8 24-24.2 24h-35.5V155.5L472 109l40 3z" fill="#D32E2A"/><path d="M512 85v27l-59.7 43.5-196.3 143-196.3-143L0 112V85C0 72 10.8 61 24 61h14l218 158.8L474 61h13.8c13.4 0 24.2 10.8 24.2 24z" fill="#F14336"/><path fill="#D32E2A" d="M59.7 155.5L0 146.2V112"/></svg>